<svg width="1357" height="492" viewBox="0 0 1357 492" fill="none" xmlns="http://www.w3.org/2000/svg">
<path d="M317.959 61.8406H191.541V388.01H125.87V61.8406H-0.000806494V-0.000205657H317.959V61.8406ZM469.026 119.851V184.428C461.729 183.333 454.797 182.786 448.23 182.786C400.435 182.786 376.538 208.872 376.538 261.045V388.01H313.055V121.492H374.896V164.179C381.099 149.95 391.132 138.822 404.996 130.796C418.86 122.404 434.548 118.209 452.06 118.209C457.898 118.209 463.553 118.756 469.026 119.851ZM566.96 316.865C581.554 331.824 599.249 339.303 620.045 339.303C640.841 339.303 658.353 331.824 672.582 316.865C687.176 301.907 694.473 281.111 694.473 254.477C694.473 228.209 687.176 207.778 672.582 193.184C658.353 178.225 640.841 170.746 620.045 170.746C599.249 170.746 581.554 178.225 566.96 193.184C552.731 207.778 545.617 228.209 545.617 254.477C545.617 280.746 552.731 301.542 566.96 316.865ZM620.045 113.283C660.177 113.283 693.196 126.6 719.099 153.234C745.368 179.867 758.502 213.615 758.502 254.477C758.502 295.34 745.368 329.27 719.099 356.268C693.196 382.902 660.177 396.219 620.045 396.219C580.277 396.219 547.259 382.902 520.99 356.268C495.086 329.27 482.134 295.34 482.134 254.477C482.134 213.615 495.086 179.867 520.99 153.234C547.259 126.6 580.277 113.283 620.045 113.283ZM866.369 491.99H803.434V121.492H864.727V157.612C871.659 145.572 882.604 135.539 897.563 127.512C912.521 119.486 929.851 115.472 949.553 115.472C987.861 115.472 1017.96 128.607 1039.85 154.875C1061.74 180.779 1072.69 213.98 1072.69 254.477C1072.69 294.975 1061.19 328.54 1038.21 355.174C1015.22 381.443 984.943 394.577 947.364 394.577C929.122 394.577 912.886 391.111 898.657 384.179C884.429 377.247 873.666 368.491 866.369 357.91V491.99ZM1009.2 254.477C1009.2 229.668 1002.64 209.784 989.503 194.826C976.369 179.502 959.039 171.841 937.513 171.841C916.352 171.841 899.022 179.502 885.523 194.826C872.389 209.784 865.822 229.668 865.822 254.477C865.822 279.652 872.389 299.9 885.523 315.224C899.022 330.547 916.352 338.209 937.513 338.209C958.674 338.209 975.822 330.547 988.956 315.224C1002.46 299.9 1009.2 279.652 1009.2 254.477ZM1161.63 225.472H1292.42C1291.69 208.69 1285.67 194.643 1274.36 183.333C1263.42 172.023 1247.55 166.368 1226.75 166.368C1207.78 166.368 1192.46 172.388 1180.78 184.428C1169.11 196.103 1162.72 209.784 1161.63 225.472ZM1299.54 294.975L1353.17 311.94C1345.51 336.385 1331.1 356.633 1309.93 372.686C1289.14 388.375 1263.42 396.219 1232.77 396.219C1194.83 396.219 1162.54 383.267 1135.9 357.363C1109.64 331.459 1096.5 296.799 1096.5 253.383C1096.5 212.521 1109.27 178.955 1134.81 152.686C1160.71 126.418 1191.18 113.283 1226.2 113.283C1267.07 113.283 1298.99 125.87 1321.97 151.045C1344.96 175.854 1356.45 209.419 1356.45 251.741C1356.45 263.051 1355.9 269.801 1354.81 271.99H1159.98C1160.71 292.056 1168.01 308.657 1181.87 321.791C1196.1 334.925 1213.07 341.492 1232.77 341.492C1267.07 341.492 1289.32 325.987 1299.54 294.975Z" fill="#0f172a"/>
</svg>
