<svg width="570" height="411" viewBox="0 0 570 411" fill="none" xmlns="http://www.w3.org/2000/svg">
<path d="M389.29 11.6377C390.8 14.5718 391.652 17.8991 391.652 21.4258V79.0527C391.653 90.0693 400.583 98.9998 411.6 99H547.805C565.55 99 575.604 119.338 564.828 133.437L359.292 402.361C355.238 407.665 348.945 410.776 342.27 410.776H274.576L408.896 209.133C419.358 195.529 409.66 175.836 392.498 175.836H334.024C324.354 175.836 316.234 169.201 313.968 160.235C313.141 156.965 314.162 153.591 315.74 150.609L389.29 11.6377ZM160.323 200.123C149.811 213.72 159.503 233.463 176.689 233.463H234.285C244.219 233.463 252.518 240.465 254.515 249.803C255.118 252.625 254.367 255.512 253.198 258.151L187.656 406.08C182.755 402.154 179.615 396.12 179.615 389.352V330.985C179.615 319.969 170.684 311.038 159.667 311.038H21.4648C3.6787 311.038 -6.3628 290.618 4.49609 276.531L211.237 8.34473C215.294 3.083 221.561 0.00014629 228.205 0H334.221L160.323 200.123Z" fill="white"/>
</svg>
